<?xml version="1.0" encoding="iso-8859-1"?>
<!-- Generator: Adobe Illustrator 19.0.0, SVG Export Plug-In . SVG Version: 6.00 Build 0)  -->
<svg version="1.1" id="Capa_1" xmlns="http://www.w3.org/2000/svg" xmlns:xlink="http://www.w3.org/1999/xlink" x="0px" y="0px"
	 viewBox="0 0 407.6 407.6" style="enable-background:new 0 0 407.6 407.6;" xml:space="preserve">
<g>
	<g>
		<path d="M251.998,164.8L234.398,44c8.8-3.2,14.8-11.6,14.8-21.2c0-12.4-10.4-22.8-22.8-22.8h-44c-12.4,0-22.8,10.4-22.8,22.8
			c0,9.6,6,17.6,14,21.2l-17.6,120.8c-9.2,5.2-38,24.8-38,64v154.4c0,0.4,0,0.4,0,0.8c1.2,8.4,8,23.6,24.4,23.6h122.8
			c16.8,0,23.2-15.6,24.4-23.6c0-0.4,0-0.4,0-0.8v-154C289.998,189.6,261.198,170,251.998,164.8z M171.198,22.4
			c0-6,4.8-11.2,11.2-11.2h44c6.4,0,11.2,5.2,11.2,11.2c0,6.4-5.2,11.2-11.2,11.2h-44C175.998,33.6,171.198,28.4,171.198,22.4z
			 M163.598,174c1.6-0.8,2.8-2.4,3.2-4.4l18-124h38l18,124c0.4,2,1.6,3.6,3.2,4.4c0.4,0,33.2,16,34.4,53.6h-148.8
			C130.398,190,162.398,174.4,163.598,174z M278.398,383.2c-0.4,2.4-2.8,13.6-12.8,13.6h-123.2c-10,0-12.8-11.6-13.2-13.6v-67.6
			h149.2V383.2z M278.798,304h-149.2v-65.2h149.2V304z"/>
	</g>
</g>
<g>
</g>
<g>
</g>
<g>
</g>
<g>
</g>
<g>
</g>
<g>
</g>
<g>
</g>
<g>
</g>
<g>
</g>
<g>
</g>
<g>
</g>
<g>
</g>
<g>
</g>
<g>
</g>
<g>
</g>
</svg>
